# xmcd CD database file generated by OrangeCD 5.2
#
# Track frame offsets:
#	150
#	13552
#	28387
#	41734
#	56814
#	71011
#	85341
#	100417
#	115290
#	129777
#	142048
#	157732
#	172324
#	186855
#	199658
#	214570
#	229639
#	243091
#
# Disc length: 3446 seconds
#
# Revision: 0
# Processed by: cddbd v1.5.2PL0 Copyright (c) Steve Scherf et al.
# Submitted via: OrangeCD 5.2
#
DISCID=fc0d7412
DTITLE=Various Artist - The Million Sellers of the 30s 1935
DYEAR=2006
DGENRE=Jazz
TTITLE0=A Little Bit Independent - Fats Waller and His Rhythm
TTITLE1=Ave Maria - Gracie Fields
TTITLE2=Canoe Song - Paul Robeson
TTITLE3=Cheek to Cheek - Fred Astaire
TTITLE4=I Get a Kick Out of You - Ethel Merman
TTITLE5=I'm in the Mood For Love - Louis Armstrong
TTITLE6=Isle of Capri - Ray Noble and His Orchestra
TTITLE7=Isn't it a Lovely Day? - Fred Astaire
TTITLE8=It's Easy to Remember - Bing Crosby
TTITLE9=Lullaby of Broadway - Dorsey Brothers Orchestra
TTITLE10=On Treasure Island - Tommy Dorsey and His Orchestra
TTITLE11=Red Sails in the Sunset - Guy Lombardo and His Royal Canadians
TTITLE12=Rhythm is Our Business - Jimmy Lunceford and His Orchestra
TTITLE13=Sugar Blues - Clyde McCoy and His Orchestra
TTITLE14=The Lady in Red - Xavier Cugat and His Orchestra
TTITLE15=Truckin' - Fats Waller and His Rhythm
TTITLE16=What a Little Moonlight Can Do - Billie Holiday
TTITLE17=You're the Top - Cole Porter
EXTD=
EXTT0=
EXTT1=
EXTT2=
EXTT3=
EXTT4=
EXTT5=
EXTT6=
EXTT7=
EXTT8=
EXTT9=
EXTT10=
EXTT11=
EXTT12=
EXTT13=
EXTT14=
EXTT15=
EXTT16=
EXTT17=
PLAYORDER=
